<?xml version="1.0" encoding="UTF-8"?>
<svg version="1.1" xmlns="http://www.w3.org/2000/svg" width="90" height="69">
<path d="M0 0 C2.52276449 2.52276449 2.98855261 3.51619707 3.07421875 7.13671875 C3.03748047 8.55404297 3.03748047 8.55404297 3 10 C4.27230469 9.98259766 4.27230469 9.98259766 5.5703125 9.96484375 C11.91290092 9.91605461 18.22759591 9.97731989 24.5625 10.3125 C26.23505859 10.39951172 26.23505859 10.39951172 27.94140625 10.48828125 C32.1765106 11.19683638 34.71243879 12.77681685 37.796875 15.70703125 C39.51928733 18.98968072 39.35885594 22.07642911 39.25 25.6875 C39.23138916 26.8022168 39.23138916 26.8022168 39.21240234 27.93945312 C39.16338709 30.29416576 39.08632702 32.64637616 39 35 C38.97389648 35.7626416 38.94779297 36.5252832 38.92089844 37.31103516 C38.1378636 58.24146632 38.1378636 58.24146632 34.0625 63.5 C26.52754801 68.97996508 12.91629508 65.79894897 4.1875 65.1875 C2.40569336 65.08211914 2.40569336 65.08211914 0.58789062 64.97460938 C-10.30523104 64.21093007 -10.30523104 64.21093007 -15 61 C-17.10831259 58.02919589 -17 56.80885177 -17 53 C-17.6705542 53.0407666 -18.3411084 53.0815332 -19.03198242 53.12353516 C-22.08326463 53.30241707 -25.13523089 53.46387242 -28.1875 53.625 C-29.77014648 53.72167969 -29.77014648 53.72167969 -31.38476562 53.8203125 C-32.40634766 53.871875 -33.42792969 53.9234375 -34.48046875 53.9765625 C-35.41785889 54.02893066 -36.35524902 54.08129883 -37.32104492 54.13525391 C-41.68694187 53.91483042 -44.2512747 52.79032115 -47.25 49.625 C-51.80880249 42.78679626 -50.67790564 32.97675008 -51 25 C-51.0407666 24.14100098 -51.0815332 23.28200195 -51.12353516 22.39697266 C-51.23619331 19.84802208 -51.31074158 17.30058407 -51.375 14.75 C-51.41310791 13.96488037 -51.45121582 13.17976074 -51.49047852 12.37084961 C-51.54981144 8.29973209 -51.23763241 5.76299528 -48.6640625 2.515625 C-44.82435409 -1.11014072 -41.78412279 -1.18403276 -36.6796875 -1.53515625 C-35.4215625 -1.62216797 -34.1634375 -1.70917969 -32.8671875 -1.79882812 C-32.21073242 -1.84209229 -31.55427734 -1.88535645 -30.87792969 -1.92993164 C-28.90264048 -2.06067055 -26.92787362 -2.19922551 -24.953125 -2.33789062 C-4.51915542 -3.7216574 -4.51915542 -3.7216574 0 0 Z M-23.671875 0.16796875 C-35.06152104 0.38956574 -35.06152104 0.38956574 -46 3 C-48.77247807 8.01610194 -49.32755738 11.45679634 -48.85546875 17.24609375 C-48.80683182 17.90207047 -48.75819489 18.55804718 -48.70808411 19.23390198 C-48.55090053 21.30344205 -48.36966174 23.37002456 -48.1875 25.4375 C-48.07586939 26.85078564 -47.96582844 28.26419778 -47.85742188 29.67773438 C-47.58996099 33.12014335 -47.30091114 36.56033464 -47 40 C-45.87411986 39.04270084 -44.7493285 38.08412105 -43.625 37.125 C-42.99851562 36.59132812 -42.37203125 36.05765625 -41.7265625 35.5078125 C-40.44163349 34.38567993 -39.20628025 33.20628025 -38 32 C-34.60229115 32.3299428 -32.7318913 33.8192521 -30.25 36.0625 C-29.32960938 36.88427734 -29.32960938 36.88427734 -28.390625 37.72265625 C-27.93171875 38.14417969 -27.4728125 38.56570312 -27 39 C-22.06493559 36.79335226 -18.77894239 33.63629675 -16 29 C-15.25706596 25.64872147 -14.8792631 22.35004139 -14.4921875 18.94140625 C-14 16 -14 16 -12 12.75 C-7.7827056 10.2899116 -3.81713965 10.10289036 1 10 C0.69787145 6.67658593 0.38755354 4.51828333 -1.6328125 1.81640625 C-4.80095324 -0.61459283 -6.66138584 -0.43771221 -10.625 -0.3125 C-11.27162598 -0.29558105 -11.91825195 -0.27866211 -12.58447266 -0.26123047 C-16.28125206 -0.1497389 -19.97563983 0.03552287 -23.671875 0.16796875 Z M-12 16 C-13.19584542 19.58753627 -13.37681654 23.03015269 -13.60546875 26.7734375 C-13.65318924 27.53419586 -13.70090973 28.29495422 -13.75007629 29.07876587 C-13.84894664 30.68746217 -13.94546166 32.29630471 -14.03979492 33.90527344 C-14.18657704 36.3595675 -14.34987827 38.81241547 -14.51367188 41.265625 C-14.60779481 42.83066792 -14.70092626 44.39577085 -14.79296875 45.9609375 C-14.84390182 46.69130219 -14.8948349 47.42166687 -14.9473114 48.17416382 C-15.16701983 52.27927851 -15.0445962 55.38484455 -13 59 C-9.79532496 61.13645003 -8.5030759 61.34012056 -4.765625 61.6328125 C-3.72301514 61.71708496 -2.68040527 61.80135742 -1.60620117 61.88818359 C0.05511841 62.00540771 0.05511841 62.00540771 1.75 62.125 C3.4374231 62.2480249 3.4374231 62.2480249 5.15893555 62.37353516 C19.4417459 64.50433166 19.4417459 64.50433166 32.32421875 61.1640625 C36.80417232 55.37876115 35.71736466 46.0579219 36 39 C36.0407666 38.07977051 36.0815332 37.15954102 36.12353516 36.21142578 C36.23738039 33.37013949 36.31148024 30.53031802 36.375 27.6875 C36.41310791 26.78660645 36.45121582 25.88571289 36.49047852 24.95751953 C36.54073871 21.0372241 36.51703315 18.75004584 34.2578125 15.47265625 C29.15041218 13.16391534 24.04890713 13.05129812 18.5 12.75 C16.83710937 12.63398438 16.83710937 12.63398438 15.140625 12.515625 C11.76094468 12.29555279 8.38399157 12.13745046 5 12 C3.81148437 11.93876953 2.62296875 11.87753906 1.3984375 11.81445312 C0.24601562 11.77771484 -0.90640625 11.74097656 -2.09375 11.703125 C-3.13208984 11.66348633 -4.17042969 11.62384766 -5.24023438 11.58300781 C-8.74554665 12.11264983 -9.84682613 13.24209967 -12 16 Z M-17 33 C-18.21649657 34.30693157 -19.39878439 35.6458582 -20.5625 37 C-21.52349609 38.11375 -21.52349609 38.11375 -22.50390625 39.25 C-22.99761719 39.8275 -23.49132812 40.405 -24 41 C-27.86218658 40.47303499 -29.95113768 39.57444175 -32.8125 36.9375 C-33.41707031 36.38964844 -34.02164063 35.84179688 -34.64453125 35.27734375 C-35.09183594 34.85582031 -35.53914063 34.43429688 -36 34 C-39.44428265 35.44781793 -41.36130962 37.27694609 -43.75 40.125 C-44.36359375 40.84945312 -44.9771875 41.57390625 -45.609375 42.3203125 C-46.06828125 42.87460937 -46.5271875 43.42890625 -47 44 C-45.19587357 47.26460973 -44.16605307 48.88929795 -41 51 C-33.05173173 51.73387766 -24.91486476 50.75379664 -17 50 C-16.67 44.39 -16.34 38.78 -16 33 C-16.33 33 -16.66 33 -17 33 Z " fill="#8f8f8f" transform="translate(51,3)"/>
<path d="M0 0 C4.46465447 1.57026821 8.18677999 3.87143875 12.125 6.4375 C12.74503906 6.83259766 13.36507812 7.22769531 14.00390625 7.63476562 C20.71374599 11.97090937 20.71374599 11.97090937 22 14 C22.296875 16.84375 22.296875 16.84375 21 20 C17.98421169 22.32031696 14.68079979 23.8804325 11.25 25.5 C10.3425 25.96664062 9.435 26.43328125 8.5 26.9140625 C1.72963298 30.22006043 1.72963298 30.22006043 -1.73925781 29.17382812 C-4 28 -4 28 -5 27 C-5.23375844 23.33549267 -5.09866672 19.66860821 -5 16 C-4.97164062 14.92492187 -4.94328125 13.84984375 -4.9140625 12.7421875 C-4.85992187 11.69289063 -4.80578125 10.64359375 -4.75 9.5625 C-4.70359375 8.59441406 -4.6571875 7.62632813 -4.609375 6.62890625 C-3.85696872 3.38294837 -2.50695375 2.12088287 0 0 Z M0 3 C-2.70085811 5.70085811 -2.06434858 11.4932743 -2.09765625 15.18359375 C-2.09112168 16.60159587 -2.07936452 18.01958311 -2.0625 19.4375 C-2.05798828 20.16904297 -2.05347656 20.90058594 -2.04882812 21.65429688 C-2.03718148 23.43623419 -2.01925191 25.21812863 -2 27 C2.95998472 26.38367054 6.93671966 24.20164371 11.3125 21.9375 C12.05306641 21.56044922 12.79363281 21.18339844 13.55664062 20.79492188 C15.37387522 19.86871843 17.18732404 18.93509371 19 18 C19 16.68 19 15.36 19 14 C17.46839439 12.43531516 17.46839439 12.43531516 15.3515625 11.203125 C14.59359375 10.71972656 13.835625 10.23632812 13.0546875 9.73828125 C12.25289062 9.24714844 11.45109375 8.75601563 10.625 8.25 C9.8309375 7.74339844 9.036875 7.23679687 8.21875 6.71484375 C4.38575237 4.00784573 4.38575237 4.00784573 0 3 Z " fill="#8f8f8f" transform="translate(54,25)"/>
<path d="M0 0 C3.0625 0.1875 3.0625 0.1875 5.0625 2.1875 C5.3125 5.1875 5.3125 5.1875 5.0625 8.1875 C3.0625 10.1875 3.0625 10.1875 0.0625 10.4375 C-2.9375 10.1875 -2.9375 10.1875 -4.9375 8.1875 C-4.24305556 0.27083333 -4.24305556 0.27083333 0 0 Z M-0.9375 2.1875 C-1.5975 3.5075 -2.2575 4.8275 -2.9375 6.1875 C-0.9575 7.1775 -0.9575 7.1775 1.0625 8.1875 C1.7225 7.1975 2.3825 6.2075 3.0625 5.1875 C2.4025 4.1975 1.7425 3.2075 1.0625 2.1875 C0.4025 2.1875 -0.2575 2.1875 -0.9375 2.1875 Z " fill="#8f8f8f" transform="translate(12.9375,9.8125)"/>
</svg>
